<svg width="116" height="37" viewBox="0 0 116 37" fill="none" xmlns="http://www.w3.org/2000/svg">
<path d="M2.04942 15.0265V27.7065C2.04942 28.4965 2.69442 29.1365 3.47742 29.1365H6.51242C6.77342 29.1365 6.98542 29.3475 6.98542 29.6135V35.2315C6.98542 35.3645 7.07742 35.4015 7.17042 35.3275L14.7404 29.4255C14.9444 29.2655 15.3244 29.1365 15.5804 29.1365H30.6204C31.4094 29.1365 32.0494 28.4965 32.0494 27.7095V11.6235C32.0424 11.4777 32.0029 11.3355 31.9337 11.207C31.8644 11.0786 31.7673 10.9674 31.6494 10.8815L16.8764 1.28545C16.7559 1.21429 16.6184 1.17676 16.4784 1.17676C16.3384 1.17676 16.201 1.21429 16.0804 1.28545L1.87742 10.6195C1.43742 10.9085 1.47042 11.3295 1.93742 11.5565L16.5874 18.6365C17.0594 18.8665 17.7774 18.7935 18.1994 18.4695L27.4974 11.3165" stroke="#1B263A" stroke-width="2"/>
<path fill-rule="evenodd" clip-rule="evenodd" d="M59.1578 17.1184C59.1578 21.4544 56.2778 23.8934 53.2528 23.8934C51.1638 23.8934 49.8428 22.8094 48.9558 21.6034V27.5644H46.0508V10.6144H48.9558V12.7824C49.8918 11.4274 51.2118 10.3434 53.2528 10.3434C56.2528 10.3434 59.1578 12.7834 59.1578 17.1184ZM56.2048 17.1184C56.2048 14.5564 54.5488 12.9304 52.5798 12.9304C50.6118 12.9304 48.8838 14.5804 48.8838 17.1184C48.8838 19.6564 50.6118 21.3074 52.5798 21.3074C54.5728 21.3074 56.2048 19.7054 56.2048 17.1184ZM64.4748 18.6704C64.4748 15.2214 66.2508 13.5224 68.7948 13.5224H68.9628V10.3684C66.7308 10.2704 65.2668 11.6004 64.4738 13.5464V10.6144H61.5708V23.6224H64.4748V18.6704ZM72.6948 18.1784C73.0318 20.2964 74.4718 21.4794 76.3448 21.4794C77.7608 21.4794 78.7688 20.9374 79.7768 19.9274L81.4818 21.4794C80.2818 22.9574 78.6248 23.9184 76.2958 23.9184C72.6238 23.9184 69.7908 21.1834 69.7908 17.1434C69.7908 13.3984 72.3598 10.3434 75.9838 10.3434C80.0168 10.3434 82.0578 13.5954 82.0578 17.3654C82.0578 17.6354 82.0338 17.8824 82.0098 18.1784H72.6958H72.6948ZM72.6718 16.2074H79.1768C78.9848 14.2854 77.8808 12.7824 75.9598 12.7824C74.1838 12.7824 72.9358 14.1874 72.6718 16.2074ZM90.8068 13.0534L83.4848 21.5784V23.6224H94.5038V21.1834H87.1808L94.5028 12.6594V10.6144H83.7488V13.0544H90.8068V13.0534ZM100.012 23.6234V5.63843H97.1078V23.6224H100.012V23.6234ZM115.051 10.6134H112.026L108.738 20.2714L105.137 10.6134H102.04L107.321 23.6214C106.841 24.7554 106.337 25.1244 105.521 25.1244C104.921 25.1244 104.345 24.9274 103.816 24.6314L102.832 26.8494C103.72 27.3414 104.609 27.6374 105.832 27.6374C107.873 27.6374 109.002 26.6524 110.01 23.9914L115.051 10.6144V10.6134Z" fill="#1B263A"/>
</svg>
